<?xml version="1.0" encoding="UTF-8"?>
<svg width="892px" height="1218px" viewBox="0 0 892 1218" version="1.1" xmlns="http://www.w3.org/2000/svg" xmlns:xlink="http://www.w3.org/1999/xlink">
    <defs>
        <path d="M812,0 C856.18278,0 892,35.81722 892,80 L892,1138 C892,1182.18278 856.18278,1218 812,1218 L80,1218 C35.81722,1218 0,1182.18278 0,1138 L0,80 C0,35.81722 35.81722,0 80,0 L812,0 Z" id="path-1"/>
        <pattern id="pattern-2" patternUnits="objectBoundingBox" width="100%" height="100%">
            <use xlink:href="#image-3"/>
        </pattern>
        <image id="image-3" width="100%" height="100%" preserveAspectRatio="xMidYMid slice" xlink:href="https://daily-now-res.cloudinary.com/image/upload/v1626263639/devcard/Dev_Card_Bg_-_G.jpg"/>
        <path d="M764,0 L32,0 C14.5036191,0 0.286872383,14.0417829 0,31.4708215 L0,32 L0,1090 C0,1107.49638 14.0417829,1121.71313 31.4708215,1122 L32,1122 L764,1122 C781.496381,1122 795.713128,1107.95822 796,1090.52918 L796,1090 L796,32 C796,14.5036191 781.958217,0.286872383 764.529179,0 L764,0 Z" id="path-5"/>
        <pattern id="pattern-7" patternUnits="objectBoundingBox" x="0%" width="100%" height="100%">
            <use xlink:href="#image-8" transform="scale(1.328125,1.328125)"/>
        </pattern>
        <image id="image-8" width="512" height="512" xlink:href="https://avatars.githubusercontent.com/u/9559275?v=4"/>
        <linearGradient x1="100%" y1="50%" x2="-2.22044605e-14%" y2="50%" id="linearGradient-9">
            <stop stop-color="#FFE923" offset="0%"/>
            <stop stop-color="#FF8E3B" offset="100%"/>
        </linearGradient>
        <radialGradient cx="77.6966206%" cy="27.7857039%" fx="77.6966206%" fy="27.7857039%" r="103.840965%" gradientTransform="translate(0.776966,0.277857),scale(1.000000,0.855914),rotate(120.029938),translate(-0.776966,-0.277857)" id="radialGradient-10">
            <stop stop-color="#0E1217" stop-opacity="0" offset="0%"/>
            <stop stop-color="#0E1217" stop-opacity="0.296253568" offset="29.6495719%"/>
            <stop stop-color="#0E1217" offset="56.4785491%"/>
            <stop stop-color="#0E1217" offset="100%"/>
        </radialGradient>
        <path d="M17.92,0 L46.08,0 C55.9769427,0 64,8.02305728 64,17.92 L64,46.08 C64,55.9769427 55.9769427,64 46.08,64 L17.92,64 C8.02305728,64 0,55.9769427 0,46.08 L0,17.92 C0,8.02305728 8.02305728,0 17.92,0 Z" id="path-11"/>
        <path d="M17.92,0 L46.08,0 C55.9769427,0 64,8.02305728 64,17.92 L64,46.08 C64,55.9769427 55.9769427,64 46.08,64 L17.92,64 C8.02305728,64 0,55.9769427 0,46.08 L0,17.92 C0,8.02305728 8.02305728,0 17.92,0 Z" id="path-13"/>
        <path d="M17.92,0 L46.08,0 C55.9769427,0 64,8.02305728 64,17.92 L64,46.08 C64,55.9769427 55.9769427,64 46.08,64 L17.92,64 C8.02305728,64 0,55.9769427 0,46.08 L0,17.92 C0,8.02305728 8.02305728,0 17.92,0 Z" id="path-15"/>
        <path d="M17.92,0 L46.08,0 C55.9769427,0 64,8.02305728 64,17.92 L64,46.08 C64,55.9769427 55.9769427,64 46.08,64 L17.92,64 C8.02305728,64 0,55.9769427 0,46.08 L0,17.92 C0,8.02305728 8.02305728,0 17.92,0 Z" id="path-17"/>
        <path d="M17.92,0 L46.08,0 C55.9769427,0 64,8.02305728 64,17.92 L64,46.08 C64,55.9769427 55.9769427,64 46.08,64 L17.92,64 C8.02305728,64 0,55.9769427 0,46.08 L0,17.92 C0,8.02305728 8.02305728,0 17.92,0 Z" id="path-19"/>
        <linearGradient x1="50%" y1="-2.48949813e-15%" x2="50%" y2="100%" id="linearGradient-21">
            <stop stop-color="#FFE923" offset="0%"/>
            <stop stop-color="#FF8E3B" offset="100%"/>
        </linearGradient>
        <filter color-interpolation-filters="auto" id="filter-22">
            <feColorMatrix in="SourceGraphic" type="matrix" values="0 0 0 0 1.000000 0 0 0 0 1.000000 0 0 0 0 1.000000 0 0 0 1.000000 0"/>
        </filter>
    </defs>
    <g stroke="none" stroke-width="1" fill="none" fill-rule="evenodd">
        <g id="Bg">
            <mask id="mask-4" fill="white">
                <use xlink:href="#path-1"/>
            </mask>
            <linearGradient x1="50%" y1="-2.48949813e-15%" x2="50%" y2="100%" id="linearGradient-5">
                <stop stop-color="#FFFFFF" offset="0%"/>
                <stop stop-color="#FFFFFF" stop-opacity="0" offset="100%"/>
            </linearGradient>
            <use id="Rectangle" fill="url(#pattern-2)" xlink:href="#path-1"/>
            <path d="M812,0.5 C833.953319,0.5 853.828319,9.3983406 868.214989,23.7850109 C882.601659,38.1716812 891.5,58.0466812 891.5,80 L891.5,80 L891.5,1138 C891.5,1159.95332 882.601659,1179.82832 868.214989,1194.21499 C853.828319,1208.60166 833.953319,1217.5 812,1217.5 L812,1217.5 L80,1217.5 C58.0466812,1217.5 38.1716812,1208.60166 23.7850109,1194.21499 C9.3983406,1179.82832 0.5,1159.95332 0.5,1138 L0.5,1138 L0.5,80 C0.5,58.0466812 9.3983406,38.1716812 23.7850109,23.7850109 C38.1716812,9.3983406 58.0466812,0.5 80,0.5 L80,0.5 Z" id="Bazel" stroke="url(#linearGradient-5)" mask="url(#mask-4)"/>
        </g>
        <g id="devcard" transform="translate(48.000000, 48.000000)">
            <mask id="mask-6" fill="white">
                <use xlink:href="#path-5"/>
            </mask>
            <use id="Rectangle" fill="#0E1217" xlink:href="#path-5"/>
            <g id="profile_image_group" mask="url(#mask-6)">
                <g transform="translate(0.000000, 192.000000)">
                    <circle id="profile_image" stroke="none" fill="url(#pattern-7)" fill-rule="evenodd" cx="548" cy="366" r="340"/>
                    <circle id="border" stroke="url(#linearGradient-9)" stroke-width="24" fill="none" transform="translate(548.000000, 366.000000) rotate(-90.000000) translate(-548.000000, -366.000000) " cx="548" cy="366" r="352"/>
                    <rect id="fade" stroke="none" fill="url(#radialGradient-10)" fill-rule="evenodd" x="0" y="0" width="796" height="930"/>
                </g>
            </g>
            
            <g id="stats" mask="url(#mask-6)">
                <g transform="translate(59.000000, 516.000000)">
                    <g id="publications" transform="translate(0.000000, 432.000000)">
                        <g id="publication_icons" transform="translate(0.000000, 46.000000)">
                            <mask id="mask-12" fill="white">
                                <use xlink:href="#path-11"/>
                            </mask>
                            <g transform="translate(0, 0.000000)" mask="url(#mask-12)">
                <image x="0" y="0" width="64" height="64" xlink:href="https://res.cloudinary.com/daily-now/image/upload/t_logo,f_auto/v1/logos/glc"/>
              </g>,<g transform="translate(84, 0.000000)" mask="url(#mask-12)">
                <image x="0" y="0" width="64" height="64" xlink:href="https://res.cloudinary.com/daily-now/image/upload/t_logo,f_auto/v1/logos/3db05bfc08fa42c6b37bae670192c2be"/>
              </g>,<g transform="translate(168, 0.000000)" mask="url(#mask-12)">
                <image x="0" y="0" width="64" height="64" xlink:href="https://res.cloudinary.com/daily-now/image/upload/t_logo,f_auto/v1/logos/01acb643b26d47bab30089a607e07829"/>
              </g>,<g transform="translate(252, 0.000000)" mask="url(#mask-12)">
                <image x="0" y="0" width="64" height="64" xlink:href="https://res.cloudinary.com/daily-now/image/upload/t_logo,f_auto/v1/logos/172d19bda1bd403f9497a9d29a3ed99b"/>
              </g>,<g transform="translate(336, 0.000000)" mask="url(#mask-12)">
                <image x="0" y="0" width="64" height="64" xlink:href="https://res.cloudinary.com/daily-now/image/upload/t_logo,f_auto/v1/logos/582e3faed71842bfb9d3840a787d6700"/>
              </g>
                        </g>
                        <text id="Favorite-publication" font-family="system-ui,-apple-system,BlinkMacSystemFont,Roboto,Helvetica,Ubuntu,Segoe UI,Arial,sans-serif,Apple Color Emoji,Segoe UI Emoji,Segoe UI Symbol" font-size="24" font-weight="normal" line-spacing="30" fill="#FFFFFF">
                            <tspan x="0" y="22">Favorite publications</tspan>
                        </text>
                    </g>
                    <g id="tags" transform="translate(0.000000, 156.000000)">
                        <g transform="translate(0.000000, 0)">
              <g id="bar" transform="translate(0.000000, 42.000000)">
                <rect id="Bg" fill="#525866" x="0" y="0" width="320" height="4" rx="2"/>
                <rect id="Fill" fill="#F5F8FC" x="0" y="0" width="320" height="4" rx="2"/>
              </g>
              <text id="Javascript" font-family="system-ui,-apple-system,BlinkMacSystemFont,Roboto,Helvetica,Ubuntu,Segoe UI,Arial,sans-serif,Apple Color Emoji,Segoe UI Emoji,Segoe UI Symbol" font-size="24" font-weight="normal" line-spacing="30" fill="#FFFFFF">
                <tspan x="0" y="22">Tech News</tspan>
              </text>
              <text id="79" font-family="system-ui,-apple-system,BlinkMacSystemFont,Roboto,Helvetica,Ubuntu,Segoe UI,Arial,sans-serif,Apple Color Emoji,Segoe UI Emoji,Segoe UI Symbol" font-size="40" font-weight="bold" line-spacing="48" fill="#FFFFFF">
                <tspan x="336" y="43">88</tspan>
              </text>
            </g>,<g transform="translate(0.000000, 66)">
              <g id="bar" transform="translate(0.000000, 42.000000)">
                <rect id="Bg" fill="#525866" x="0" y="0" width="320" height="4" rx="2"/>
                <rect id="Fill" fill="#F5F8FC" x="0" y="0" width="269.09090909090907" height="4" rx="2"/>
              </g>
              <text id="Javascript" font-family="system-ui,-apple-system,BlinkMacSystemFont,Roboto,Helvetica,Ubuntu,Segoe UI,Arial,sans-serif,Apple Color Emoji,Segoe UI Emoji,Segoe UI Symbol" font-size="24" font-weight="normal" line-spacing="30" fill="#FFFFFF">
                <tspan x="0" y="22">Webdev</tspan>
              </text>
              <text id="79" font-family="system-ui,-apple-system,BlinkMacSystemFont,Roboto,Helvetica,Ubuntu,Segoe UI,Arial,sans-serif,Apple Color Emoji,Segoe UI Emoji,Segoe UI Symbol" font-size="40" font-weight="bold" line-spacing="48" fill="#FFFFFF">
                <tspan x="336" y="43">74</tspan>
              </text>
            </g>,<g transform="translate(0.000000, 132)">
              <g id="bar" transform="translate(0.000000, 42.000000)">
                <rect id="Bg" fill="#525866" x="0" y="0" width="320" height="4" rx="2"/>
                <rect id="Fill" fill="#F5F8FC" x="0" y="0" width="243.63636363636363" height="4" rx="2"/>
              </g>
              <text id="Javascript" font-family="system-ui,-apple-system,BlinkMacSystemFont,Roboto,Helvetica,Ubuntu,Segoe UI,Arial,sans-serif,Apple Color Emoji,Segoe UI Emoji,Segoe UI Symbol" font-size="24" font-weight="normal" line-spacing="30" fill="#FFFFFF">
                <tspan x="0" y="22">Security</tspan>
              </text>
              <text id="79" font-family="system-ui,-apple-system,BlinkMacSystemFont,Roboto,Helvetica,Ubuntu,Segoe UI,Arial,sans-serif,Apple Color Emoji,Segoe UI Emoji,Segoe UI Symbol" font-size="40" font-weight="bold" line-spacing="48" fill="#FFFFFF">
                <tspan x="336" y="43">67</tspan>
              </text>
            </g>,<g transform="translate(0.000000, 198)">
              <g id="bar" transform="translate(0.000000, 42.000000)">
                <rect id="Bg" fill="#525866" x="0" y="0" width="320" height="4" rx="2"/>
                <rect id="Fill" fill="#F5F8FC" x="0" y="0" width="203.63636363636363" height="4" rx="2"/>
              </g>
              <text id="Javascript" font-family="system-ui,-apple-system,BlinkMacSystemFont,Roboto,Helvetica,Ubuntu,Segoe UI,Arial,sans-serif,Apple Color Emoji,Segoe UI Emoji,Segoe UI Symbol" font-size="24" font-weight="normal" line-spacing="30" fill="#FFFFFF">
                <tspan x="0" y="22">Golang</tspan>
              </text>
              <text id="79" font-family="system-ui,-apple-system,BlinkMacSystemFont,Roboto,Helvetica,Ubuntu,Segoe UI,Arial,sans-serif,Apple Color Emoji,Segoe UI Emoji,Segoe UI Symbol" font-size="40" font-weight="bold" line-spacing="48" fill="#FFFFFF">
                <tspan x="336" y="43">56</tspan>
              </text>
            </g>
                    </g>
                    <g id="total" transform="translate(-0.000000, 0.000000)">
                        <text id="219" font-family="system-ui,-apple-system,BlinkMacSystemFont,Roboto,Helvetica,Ubuntu,Segoe UI,Arial,sans-serif,Apple Color Emoji,Segoe UI Emoji,Segoe UI Symbol" font-size="80" font-weight="bold" line-spacing="86" fill="#FFFFFF">
                            <tspan x="0" y="74">854</tspan>
                        </text>
                        <text id="Articles-read" font-family="system-ui,-apple-system,BlinkMacSystemFont,Roboto,Helvetica,Ubuntu,Segoe UI,Arial,sans-serif,Apple Color Emoji,Segoe UI Emoji,Segoe UI Symbol" font-size="32" font-weight="normal" line-spacing="38" fill="#FFFFFF">
                            <tspan x="0" y="116">Articles read</tspan>
                        </text>
                    </g>
                </g>
            </g>
            
            <g id="header" mask="url(#mask-6)">
                <g transform="translate(35.000000, 48.000000)">
                    <g id="username" transform="translate(192.000000, 37.000000)" font-family="system-ui,-apple-system,BlinkMacSystemFont,Roboto,Helvetica,Ubuntu,Segoe UI,Arial,sans-serif,Apple Color Emoji,Segoe UI Emoji,Segoe UI Symbol" font-size="64" font-weight="bold" line-spacing="86">
                        <text fill="#FFFFFF">
                            <tspan x="0" y="59">@BenB</tspan>
                        </text>
                    </g>
                    <g id="rank-group">
                        <circle id="border" stroke="#525866" stroke-width="2" fill="#0E1217" cx="80" cy="80" r="81"/>
                        <g id="rank" transform="translate(20.000000, 16.000000)">
                             <path transform="scale(5.2)" d="M18.5119999,7.125 L20.731988,11.007431 C21.0835615,11.6224452 21.0835615,12.3775548 20.731988,12.992569 L17.729758,18.2444268 C17.46266,18.7116664 16.9657134,19 16.427518,19 L13.8580333,19 C13.5818909,19 13.3580333,18.7761424 13.3580333,18.5 C13.3580333,18.4129581 13.3807558,18.327424 13.4239533,18.2518577 L16.7141326,12.4962845 C16.8899194,12.1887774 16.8899194,11.8112226 16.7141326,11.5037155 L16.3619999,10.888 L18.5119999,7.125 Z M8.50699988,14.611 L9.0669873,15.580127 C9.31057747,16.0020376 9.7419704,16.2766727 10.2210207,16.3231195 L10.3660254,16.330127 L11.5249999,16.33 L10.2879206,18.4961389 C10.1098778,18.8077139 9.77853431,19 9.41967746,19 L6.86158984,19 C6.58544746,19 6.36158984,18.7761424 6.36158984,18.5 C6.36158984,18.4129865 6.3842975,18.3274794 6.42746827,18.2519305 L8.50699988,14.611 Z M10.1376351,5 C10.2246769,5 10.310211,5.02272249 10.3857773,5.06592003 C10.5988758,5.18773797 10.6883289,5.44260963 10.6093253,5.66611793 L10.571715,5.74814226 L7.28153572,11.5037155 C7.12772231,11.7727842 7.10849564,12.0954832 7.22385569,12.3779595 L7.28153572,12.4962845 L7.63499988,13.115 L5.48399988,16.878 L3.26368,12.992569 C2.9414043,12.428806 2.91454799,11.7473239 3.18311107,11.163941 L3.26368,11.007431 L6.26591,5.75557323 C6.50872639,5.33080991 6.94150028,5.05390285 7.42253384,5.00706655 L7.56815,5 L10.1376351,5 Z M13.3452995,9.16987298 L13.4331972,9.17764841 C13.5481189,9.19816128 13.6524041,9.25837033 13.7276296,9.347639 L13.7783122,9.41987298 L15.1236116,11.75 L15.1608268,11.8300094 C15.200523,11.939791 15.200523,12.060209 15.1608268,12.1699906 L15.1236116,12.25 L13.7783122,14.580127 L13.7276296,14.652361 C13.6524041,14.7416297 13.5481189,14.8018387 13.4331972,14.8223516 L13.3452995,14.830127 L10.6547005,14.830127 L10.5668028,14.8223516 C10.4518811,14.8018387 10.3475959,14.7416297 10.2723704,14.652361 L10.2216878,14.580127 L8.87638837,12.25 L8.83917321,12.1699906 C8.79947703,12.060209 8.79947703,11.939791 8.83917321,11.8300094 L8.87638837,11.75 L10.2216878,9.41987298 L10.2723704,9.347639 C10.3475959,9.25837033 10.4518811,9.19816128 10.5668028,9.17764841 L10.6547005,9.16987298 L13.3452995,9.16987298 Z M17.1384102,5 C17.4145525,5 17.6384102,5.22385763 17.6384102,5.5 C17.6384102,5.58701347 17.6157025,5.67252062 17.5725317,5.74806947 L15.4919999,9.388 L14.9330127,8.41987298 C14.6894225,7.99796242 14.2580296,7.72332726 13.7789793,7.67688046 L13.6339746,7.66987298 L12.4739999,7.669 L13.7120794,5.50386106 C13.8901222,5.19228606 14.2214657,5 14.5803225,5 L17.1384102,5 Z" id="Rank" fill="url(#linearGradient-21)"/>
    <path transform="scale(5.2)" d="M8.50658984,14.611 L9.0669873,15.580127 C9.21720124,15.8403052 9.4388324,16.0444778 9.69901603,16.1736704 L8.14158984,18.999 L6.86158984,19 C6.58544746,19 6.36158984,18.7761424 6.36158984,18.5 C6.36158984,18.4129865 6.3842975,18.3274794 6.42746827,18.2519305 L8.50658984,14.611 Z M10.1376351,5 C10.2246769,5 10.310211,5.02272249 10.3857773,5.06592003 C10.5988758,5.18773797 10.6883289,5.44260963 10.6093253,5.66611793 L10.571715,5.74814226 L7.28153572,11.5037155 C7.18904327,11.6655143 7.14521691,11.8467056 7.15005663,12.0268841 L3.00018036,12.0268841 C2.99622748,11.7325006 3.05720438,11.4374403 3.18311107,11.163941 L3.26368,11.007431 L6.26591,5.75557323 C6.50872639,5.33080991 6.94150028,5.05390285 7.42253384,5.00706655 L7.56815,5 L10.1376351,5 Z M15.8593663,5 L14.300984,7.82632959 C14.1392482,7.74602068 13.9626152,7.69468507 13.7789793,7.67688046 L13.6339746,7.66987298 L12.4745898,7.669 L13.7120794,5.50386106 C13.8901222,5.19228606 14.2214657,5 14.5803225,5 L15.8593663,5 Z" id="Shine" fill-opacity="0.2" fill="#F5F8FC"/>
    <path transform="scale(5.2)" d="M20.9954876,11.9731159 C20.9994405,12.2674994 20.9384636,12.5625597 20.8125569,12.836059 L20.731988,12.992569 L17.729758,18.2444268 C17.4869416,18.6691901 17.0541677,18.9460972 16.5731342,18.9929334 L16.427518,19 L13.8580329,19 C13.7709911,19 13.685457,18.9772775 13.6098907,18.93408 C13.3967922,18.812262 13.3073391,18.5573904 13.3863427,18.3338821 L13.423953,18.2518577 L16.7141323,12.4962845 C16.8066247,12.3344857 16.8504511,12.1532944 16.8456114,11.9731159 L20.9954876,11.9731159 Z M13.3452995,9.16987298 L13.4331972,9.17764841 C13.5030188,9.19011117 13.5689142,9.21722686 13.6267517,9.25661006 L12.029888,12.0182369 L15.1901573,12.021023 C15.1879362,12.0738639 15.1773372,12.1264313 15.1583603,12.1766627 L15.1236116,12.25 L13.7783122,14.580127 L13.7276296,14.652361 C13.6933923,14.6929897 13.6531356,14.7275989 13.6085963,14.7551859 L12.0344003,12.0260523 L10.4411564,14.7822341 C10.3732628,14.7501585 10.3128707,14.7029349 10.2650839,14.6435099 L10.2216878,14.580127 L8.87638837,12.25 L8.83917321,12.1699906 C8.82212063,12.1228309 8.81239345,12.0737084 8.80999168,12.0243094 L12.0249598,12.025701 L10.4153031,9.2309094 C10.463458,9.20464532 10.5159728,9.18627272 10.5708537,9.17694255 L10.6547005,9.16987298 L13.3452995,9.16987298 Z M10.1376351,5 C10.2246769,5 10.310211,5.02272249 10.3857773,5.06592003 C10.5988758,5.18773797 10.6883289,5.44260963 10.6093253,5.66611793 L10.571715,5.74814226 L7.28153572,11.5037155 C7.18904327,11.6655143 7.14521691,11.8467056 7.15005663,12.0268841 L3.00018036,12.0268841 C2.99622748,11.7325006 3.05720438,11.4374403 3.18311107,11.163941 L3.26368,11.007431 L6.26591,5.75557323 C6.50872639,5.33080991 6.94150028,5.05390285 7.42253384,5.00706655 L7.56815,5 L10.1376351,5 Z" id="Light" fill-opacity="0.2" fill="#F5F8FC"/>
    <path transform="scale(5.2)" d="M10.2216878,9.41987298 L10.2723704,9.347639 C10.3131617,9.29923275 10.3624977,9.25937116 10.4174409,9.22975015 L12.0304099,12.0294249 L8.81007095,12.0258885 C8.80679602,11.9626494 8.81552917,11.8989277 8.83627043,11.8382626 L8.87638837,11.75 L10.2216878,9.41987298 Z" id="Blink" fill-opacity="0.64" fill="#FFFFFF"/>
                        </g>
                    </g>
                </g>
            </g>
            <g filter="url(#filter-22)" id="logo">
                <g mask="url(#mask-6)">
                    <g transform="translate(520.000000, 1006.000000)">
                        <g id="Icon">
                            <g id="Secound" opacity="0.52" transform="translate(46.552448, 4.111888)" fill="#151618">
                                <path d="M13.9784473,15.5966431 L6.19713065,7.81532652 L10.0857614,0.0367132867 L22.7288803,12.6798321 C24.3397905,14.2907424 24.3397905,16.9025439 22.7288803,18.5134541 L7.16759873,34.0747357 C5.5566885,35.6856459 2.94488696,35.6856459 1.33397673,34.0747357 C-0.276933504,32.4638254 -0.276933504,29.8520239 1.33397673,28.2411137 L13.9784473,15.5966431 Z" id="Combined-Shape"/>
                            </g>
                            <path d="M47.8893239,1.21518746 C49.5002341,-0.39572277 52.1127115,-0.395046926 53.7236217,1.21586331 L56.6411086,4.13335015 L22.6030862,38.1713725 C20.992176,39.7822828 18.3796986,39.7816069 16.7687884,38.1706967 L13.8513015,35.2532098 L47.8893239,1.21518746 Z M33.3012138,11.9133151 L27.4662401,17.7482888 L19.6849235,9.96697216 L9.95861568,19.69328 L17.7399323,27.4745966 L13.8513015,35.2532098 L1.20818268,22.610091 C-0.402727559,20.9991808 -0.402727559,18.3873792 1.20818268,16.776469 L16.7687884,1.21586331 C18.3796986,-0.395046926 20.992176,-0.39572277 22.6030862,1.21518746 L33.3012138,11.9133151 Z" id="Main" fill="#151618"/>
                        </g>
                        <g id="Text" transform="translate(83.412587, 2.349650)">
                            <path d="M4.39977949,11.013986 L4.39977949,24.2307692 L11.6748252,24.2307692 L13.2167832,28.6363634 L4.39977949,28.6363634 C1.96984837,28.6363634 0,26.6639116 0,24.230769 L0,11.013986 C0,8.58084341 1.96984837,6.60839161 4.39977949,6.60839161 L11.6748252,6.60839161 L11.6748252,11.013986 L13.2167832,11.013986 L13.2167832,2.2027972 C13.2167832,0.986225901 14.2030091,0 15.4195804,0 L17.6223776,0 L17.6223776,26.4335662 C17.6223776,27.6501375 16.6361517,28.6363634 15.4195804,28.6363634 L13.2167832,28.6363634 L13.2167832,11.013986 L4.39977949,11.013986 Z M26.4277724,28.6364032 C23.9978427,28.6364032 22.027972,26.6639393 22.027972,24.230798 L22.027972,19.8251748 C22.027972,17.3920322 23.9978204,15.4195804 26.4277515,15.4195804 L33.7027972,15.4195804 L33.7027972,19.8251748 L35.2447552,19.8251748 L35.2447552,11.013986 L23.1279169,11.013986 L23.1279202,8.81118882 C23.1279202,7.59461879 24.1128424,6.60839161 25.3278066,6.60839161 L35.2447552,6.60839161 C37.6778978,6.60839161 39.6503694,8.58084341 39.6503694,11.013986 L39.6503694,26.433606 C39.6503694,27.6501773 38.6641435,28.6364032 37.4475722,28.6364032 L35.2447552,28.6364032 L35.2447552,19.8251748 L26.4277515,19.8251748 L26.4277515,24.2307692 L33.7027972,24.2307692 L35.2447552,28.6364032 C29.8135522,28.6364032 26.874558,28.6364032 26.4277724,28.6364032 Z M44.0559441,28.6363637 L44.0559441,8.81118882 C44.0559441,7.59461751 45.0408682,6.60839161 46.2558338,6.60839161 L48.4557235,6.60839161 L48.4557235,26.4335664 C48.4557235,27.6501378 47.4707994,28.6363637 46.2558338,28.6363637 L44.0559441,28.6363637 Z M48.4557235,2.21719457 C48.4557235,2.83148532 48.244843,3.34978536 47.8230755,3.77211024 C47.401308,4.19443513 46.8836921,4.40559441 46.2702122,4.40559441 C45.6567322,4.40559441 45.1343235,4.19443513 44.7029705,3.77211024 C44.2716174,3.34978536 44.0559441,2.83148532 44.0559441,2.21719457 C44.0559441,1.58370724 44.2716174,1.05580905 44.7029705,0.633484163 C45.1343235,0.211159276 45.6567322,4.4408921e-14 46.2702122,4.4408921e-14 C46.8836921,4.4408921e-14 47.401308,0.211159276 47.8230755,0.633484163 C48.244843,1.05580905 48.4557235,1.58370724 48.4557235,2.21719457 Z M52.8671329,28.6363637 L52.8671329,2.2027972 C52.8671329,0.986225901 53.8520571,4.4408921e-14 55.0670226,4.4408921e-14 L57.2669124,4.4408921e-14 L57.2669124,26.4335664 C57.2669124,27.6501378 56.2819882,28.6363637 55.0670226,28.6363637 L52.8671329,28.6363637 Z M67.7136408,28.6452077 L61.7736779,10.0030082 C61.4184563,8.83959528 62.0876747,7.60811821 63.249552,7.25242719 L65.3422094,6.60839161 L70.1883632,22.440801 L74.5499017,8.16773745 C74.9051232,7.00432453 76.1194929,6.34953656 77.2813702,6.70522759 L79.3006993,7.34926316 L71.8184331,32.1264327 C71.2529217,33.9785818 69.5453112,35.2436953 67.6110905,35.2439559 L63.9738637,35.2447552 C62.7588981,35.2447552 61.7738414,34.2588258 61.7736779,33.0422545 L61.7739739,30.8391609 L65.4303212,30.8391609 C66.641839,30.8391609 67.7087766,29.8583168 67.7136408,28.6452077 Z" id="daily" fill="#151618"/>
                            <path d="M86.4783217,28.9230769 L86.4783217,25.8103497 L83.2783217,25.8103497 L83.2783217,28.9230769 L86.4783217,28.9230769 Z M96.0492308,29.1267133 C97.6007459,29.1267133 98.9146853,28.7388345 99.991049,27.9630769 C101.067413,27.1873193 101.818928,26.1497436 102.245594,24.8503497 L102.245594,24.8503497 L102.245594,28.9230769 L104.892867,28.9230769 L104.892867,7.3958042 L102.245594,7.3958042 L102.245594,17.0248951 C101.818928,15.7255012 101.067413,14.6879254 99.991049,13.9121678 C98.9146853,13.1364103 97.6007459,12.7485315 96.0492308,12.7485315 C94.6334732,12.7485315 93.3728671,13.0782284 92.2674126,13.7376224 C91.161958,14.3970163 90.2940793,15.3473193 89.6637762,16.5885315 C89.0334732,17.8297436 88.7183217,19.284289 88.7183217,20.9521678 C88.7183217,22.6200466 89.0334732,24.0697436 89.6637762,25.3012587 C90.2940793,26.5327739 91.161958,27.4782284 92.2674126,28.1376224 C93.3728671,28.7970163 94.6334732,29.1267133 96.0492308,29.1267133 Z M96.8055944,26.7994406 C95.1765035,26.7994406 93.8722611,26.2806527 92.8928671,25.2430769 C91.9134732,24.2055012 91.4237762,22.7751981 91.4237762,20.9521678 C91.4237762,19.1291375 91.9134732,17.6988345 92.8928671,16.6612587 C93.8722611,15.623683 95.1765035,15.1048951 96.8055944,15.1048951 C97.8528671,15.1048951 98.7886247,15.3424709 99.6128671,15.8176224 C100.43711,16.2927739 101.081958,16.9764103 101.547413,17.8685315 C102.012867,18.7606527 102.245594,19.7885315 102.245594,20.9521678 C102.245594,22.1158042 102.012867,23.1388345 101.547413,24.0212587 C101.081958,24.903683 100.43711,25.5873193 99.6128671,26.0721678 C98.7886247,26.5570163 97.8528671,26.7994406 96.8055944,26.7994406 Z M116.18014,29.1267133 C117.518322,29.1267133 118.720746,28.884289 119.787413,28.3994406 C120.854079,27.9145921 121.721958,27.2358042 122.391049,26.3630769 C123.06014,25.4903497 123.491655,24.5012587 123.685594,23.3958042 L123.685594,23.3958042 L120.863776,23.3958042 C120.669837,24.4818648 120.141352,25.3497436 119.278322,25.9994406 C118.415291,26.6491375 117.343776,26.973986 116.063776,26.973986 C114.648019,26.973986 113.450443,26.5182284 112.471049,25.6067133 C111.491655,24.6951981 110.972867,23.3279254 110.914685,21.5048951 L110.914685,21.5048951 L123.685594,21.5048951 C123.76317,21.0976224 123.801958,20.6127739 123.801958,20.0503497 C123.801958,18.7121678 123.496503,17.4903497 122.885594,16.3848951 C122.274685,15.2794406 121.392261,14.3970163 120.238322,13.7376224 C119.084382,13.0782284 117.731655,12.7485315 116.18014,12.7485315 C114.648019,12.7485315 113.290443,13.0782284 112.107413,13.7376224 C110.924382,14.3970163 109.998322,15.3473193 109.329231,16.5885315 C108.66014,17.8297436 108.325594,19.284289 108.325594,20.9521678 C108.325594,22.6200466 108.66014,24.0697436 109.329231,25.3012587 C109.998322,26.5327739 110.924382,27.4782284 112.107413,28.1376224 C113.290443,28.7970163 114.648019,29.1267133 116.18014,29.1267133 Z M121.125594,20.2248951 L110.914685,20.2248951 C110.992261,18.4794406 111.525594,17.1558042 112.514685,16.253986 C113.503776,15.3521678 114.725594,14.9012587 116.18014,14.9012587 C117.091655,14.9012587 117.935291,15.0951981 118.711049,15.4830769 C119.486807,15.8709557 120.097716,16.4624709 120.543776,17.2576224 C120.989837,18.0527739 121.183776,19.0418648 121.125594,20.2248951 L121.125594,20.2248951 Z M135.001958,28.9230769 L141.256503,12.9521678 L138.405594,12.9521678 L133.46014,26.1012587 L128.456503,12.9521678 L125.605594,12.9521678 L131.86014,28.9230769 L135.001958,28.9230769 Z" id=".dev" fill="#151618" fill-rule="nonzero" opacity="0.52"/>
                        </g>
                    </g>
                </g>
            </g>
        </g>
    </g>
</svg>